<svg width="111" height="110" viewBox="0 0 111 110" fill="none" xmlns="http://www.w3.org/2000/svg">
<path d="M77.1287 90.53L74.1954 67.045C73.7797 63.7185 72.1631 60.6585 69.6495 58.4403C67.1359 56.2222 63.8986 54.9987 60.5462 55H50.4446C47.0938 55.0009 43.8587 56.2254 41.347 58.4434C38.8354 60.6613 37.2201 63.7201 36.8046 67.045L33.8666 90.53C33.7054 91.8203 33.8205 93.1301 34.2043 94.3724C34.5882 95.6148 35.2319 96.7613 36.0928 97.7358C36.9537 98.7103 38.0121 99.4904 39.1977 100.024C40.3832 100.559 41.6688 100.834 42.9691 100.833H68.0308C69.3307 100.834 70.6158 100.557 71.8009 100.023C72.9859 99.4887 74.0437 98.7085 74.9041 97.7341C75.7645 96.7596 76.4078 95.6134 76.7914 94.3713C77.1749 93.1293 77.2899 91.8199 77.1287 90.53Z" stroke="white" stroke-width="8" stroke-linecap="round" stroke-linejoin="round"/>
<path d="M55.5 36.6666C63.0939 36.6666 69.25 30.5105 69.25 22.9166C69.25 15.3227 63.0939 9.16663 55.5 9.16663C47.9061 9.16663 41.75 15.3227 41.75 22.9166C41.75 30.5105 47.9061 36.6666 55.5 36.6666Z" stroke="white" stroke-width="8"/>
<path d="M18.8334 50.4166C23.896 50.4166 28.0001 46.3125 28.0001 41.2499C28.0001 36.1873 23.896 32.0833 18.8334 32.0833C13.7708 32.0833 9.66675 36.1873 9.66675 41.2499C9.66675 46.3125 13.7708 50.4166 18.8334 50.4166Z" stroke="white" stroke-width="8"/>
<path d="M92.1667 50.4166C97.2293 50.4166 101.333 46.3125 101.333 41.2499C101.333 36.1873 97.2293 32.0833 92.1667 32.0833C87.1041 32.0833 83 36.1873 83 41.2499C83 46.3125 87.1041 50.4166 92.1667 50.4166Z" stroke="white" stroke-width="8"/>
<path d="M18.8334 64.1666H17.4309C15.2609 64.1664 13.1613 64.9359 11.5054 66.3383C9.84956 67.7407 8.7449 69.685 8.38794 71.8254L6.86169 80.992C6.64267 82.3054 6.71237 83.6507 7.06597 84.9343C7.41956 86.218 8.04855 87.4092 8.90919 88.4251C9.76983 89.4411 10.8415 90.2573 12.0495 90.8171C13.2576 91.3769 14.5731 91.6668 15.9046 91.6666H32.5834M92.1667 64.1666H93.5692C95.7391 64.1664 97.8388 64.9359 99.4946 66.3383C101.15 67.7407 102.255 69.685 102.612 71.8254L104.138 80.992C104.357 82.3054 104.288 83.6507 103.934 84.9343C103.58 86.218 102.951 87.4092 102.091 88.4251C101.23 89.4411 100.159 90.2573 98.9505 90.8171C97.7424 91.3769 96.4269 91.6668 95.0954 91.6666H78.4167" stroke="white" stroke-width="8" stroke-linecap="round" stroke-linejoin="round"/>
</svg>
